<?xml version="1.0" encoding="utf-8"?>
<!-- Generator: Adobe Illustrator 23.0.2, SVG Export Plug-In . SVG Version: 6.00 Build 0)  -->
<svg version="1.1" id="Layer_1" xmlns="http://www.w3.org/2000/svg" xmlns:xlink="http://www.w3.org/1999/xlink" x="0px" y="0px"
	 viewBox="0 0 469.3 469.3" style="enable-background:new 0 0 469.3 469.3;" xml:space="preserve">
<style type="text/css">
	.st0{fill:#FFFFFF;}
</style>
<g>
	<g>
		<g>
			<path class="st0" d="M435,42.7H85.3v3.1l-4.4-15C75.7,12.6,58.8,0,40,0H10.7C4.8,0,0,4.8,0,10.7s4.8,10.7,10.7,10.7H40
				c9.4,0,17.8,6.3,20.5,15.4l66.4,227.6l-34,42.5c-4.9,6.1-7.5,13.7-7.5,21.5c0,18.9,15.4,34.4,34.4,34.4H416
				c5.9,0,10.7-4.8,10.7-10.7s-4.8-10.7-10.7-10.7H119.7c-7.2,0-13-5.8-13-13c0-2.9,1-5.8,2.9-8.1l34.3-42.8H353
				c16.4,0,31.6-9.6,38.6-24.5L466,94.8c2.1-4.6,3.3-9.6,3.3-14.6v-3C469.3,58.1,453.9,42.7,435,42.7z M448,80
				c0,1.9-0.4,3.8-1.2,5.5l-74.4,158.2c-3.5,7.4-11.1,12.3-19.3,12.3H146.7l-56-192H435c7.2,0,13,5.8,13,13V80z"/>
			<path class="st0" d="M128,384c-23.5,0-42.7,19.1-42.7,42.7s19.1,42.7,42.7,42.7s42.7-19.1,42.7-42.7S151.5,384,128,384z M128,448
				c-11.8,0-21.3-9.6-21.3-21.3s9.6-21.3,21.3-21.3s21.3,9.6,21.3,21.3S139.8,448,128,448z"/>
			<path class="st0" d="M384,384c-23.5,0-42.7,19.1-42.7,42.7s19.1,42.7,42.7,42.7s42.7-19.1,42.7-42.7S407.5,384,384,384z M384,448
				c-11.8,0-21.3-9.6-21.3-21.3s9.6-21.3,21.3-21.3s21.3,9.6,21.3,21.3S395.8,448,384,448z"/>
		</g>
	</g>
</g>
</svg>
