<?xml version="1.0" encoding="utf-8"?>
<!-- Generator: Adobe Illustrator 23.0.2, SVG Export Plug-In . SVG Version: 6.00 Build 0)  -->
<svg version="1.1" id="Capa_1" xmlns="http://www.w3.org/2000/svg" xmlns:xlink="http://www.w3.org/1999/xlink" x="0px" y="0px"
	 viewBox="0 0 251.5 251.5" style="enable-background:new 0 0 251.5 251.5;" xml:space="preserve">
<style type="text/css">
	.st0{fill:#3F4E5D;}
</style>
<g>
	<path class="st0" d="M209.4,135.6c-4.1,0-7.5,3.4-7.5,7.5v76.1H49.6v-76.1c0-4.1-3.4-7.5-7.5-7.5s-7.5,3.4-7.5,7.5v83.6
		c0,4.1,3.4,7.5,7.5,7.5h167.2c4.1,0,7.5-3.4,7.5-7.5v-83.6C216.9,138.9,213.5,135.6,209.4,135.6z"/>
	<path class="st0" d="M249.3,137.7L131,19.5c-2.9-2.9-7.7-2.9-10.6,0L2.2,137.7c-2.9,2.9-2.9,7.7,0,10.6c1.5,1.5,3.4,2.2,5.3,2.2
		s3.8-0.7,5.3-2.2L125.7,35.4l112.9,112.9c2.9,2.9,7.7,2.9,10.6,0C252.2,145.4,252.2,140.7,249.3,137.7z"/>
</g>
</svg>
